<?xml version="1.0" encoding="UTF-8" standalone="no"?>
<svg
   enable-background="new 0 0 60 60"
   viewBox="0 0 1133.8583 1133.8583"
   version="1.1"
   id="svg8"
   sodipodi:docname="table-and-clock.svg"
   inkscape:version="1.1.1 (3bf5ae0d25, 2021-09-20)"
   inkscape:export-filename="C:\Users\Dmitro\Downloads\table-and-clock.png"
   inkscape:export-xdpi="96"
   inkscape:export-ydpi="96"
   width="300mm"
   height="300mm"
   xmlns:inkscape="http://www.inkscape.org/namespaces/inkscape"
   xmlns:sodipodi="http://sodipodi.sourceforge.net/DTD/sodipodi-0.dtd"
   xmlns="http://www.w3.org/2000/svg"
   xmlns:svg="http://www.w3.org/2000/svg">
  <defs
     id="defs12">
    <linearGradient
       id="linearGradient1185"
       inkscape:swatch="solid">
      <stop
         style="stop-color:#000000;stop-opacity:1;"
         offset="0"
         id="stop1183" />
    </linearGradient>
  </defs>
  <sodipodi:namedview
     id="namedview10"
     pagecolor="#ffffff"
     bordercolor="#666666"
     borderopacity="1.0"
     inkscape:pageshadow="2"
     inkscape:pageopacity="0.0"
     inkscape:pagecheckerboard="0"
     showgrid="false"
     inkscape:zoom="0.49917265"
     inkscape:cx="887.46849"
     inkscape:cy="674.11546"
     inkscape:window-width="1920"
     inkscape:window-height="1017"
     inkscape:window-x="1912"
     inkscape:window-y="-8"
     inkscape:window-maximized="1"
     inkscape:current-layer="layer1"
     units="mm"
     width="300mm"
     inkscape:document-units="mm" />
  <g
     inkscape:groupmode="layer"
     id="layer1"
     inkscape:label="Layer 1">
    <path
       id="path4575"
       style="fill:#008080;fill-opacity:1;stroke-width:1.39069"
       d="M 24.521336,28.049502 V 567.02168 1106.0309 H 564.0276 1103.497 V 567.02168 28.049502 H 564.0276 Z M 18.879585,0 C 8.4391745,0 0,8.4879702 0,18.946362 V 1117.8354 c 0,10.4583 8.4391745,18.9463 18.879585,18.9463 H 1113.8955 c 10.4404,0 18.8796,-8.488 18.8796,-18.9463 V 18.946362 C 1132.7751,8.4879702 1124.3359,0 1113.8955,0 Z M 37.75917,37.892724 H 1095.0159 V 1098.889 H 37.75917 Z" />
    <g
       id="g4549"
       transform="translate(-3.1658863,-1.5157433)">
      <rect
         style="fill:#ffffff;fill-opacity:1;stroke-width:16.3151"
         id="rect4959"
         width="955.77899"
         height="194.30449"
         x="91.66394"
         y="125.16928"
         ry="33.694416" />
      <rect
         style="fill:#ffffff;fill-opacity:1;stroke-width:16.3151"
         id="rect4959-0"
         width="955.77899"
         height="194.30449"
         x="91.66394"
         y="472.75439"
         ry="33.694416" />
      <rect
         style="fill:#ffffff;fill-opacity:1;stroke-width:16.3151"
         id="rect4959-0-9"
         width="955.77899"
         height="194.30449"
         x="91.66394"
         y="820.33942"
         ry="33.694416" />
    </g>
    <g
       id="g4544"
       transform="translate(1.1455543,-2.8786263)">
      <path
         style="fill:#008080;stroke:#ffffff;stroke-width:42.149;stroke-miterlimit:4;stroke-dasharray:none;stroke-opacity:1"
         d="M 471.77912,954.08057 C 327.88103,916.69527 219.13578,806.83777 182.01736,661.35491 169.53061,612.41416 169.69268,526.23059 182.36317,477.49722 219.18203,335.88357 330.66879,224.00289 471.77916,187.05858 c 49.11659,-12.85927 134.80616,-13.08247 183.20965,-0.47737 146.63403,38.18652 255.21614,147.24344 291.99475,293.27142 43.67914,173.42625 -44.23054,361.8931 -206.2396,442.15025 -89.14191,44.1598 -180.51505,55.05721 -268.9648,32.07757 z"
         id="path1181" />
      <rect
         style="fill:#ffffff;fill-opacity:1;stroke-width:30.0514"
         id="rect2931"
         width="209.11797"
         height="92.845284"
         x="199.86165"
         y="738.82129"
         transform="matrix(0.86901174,-0.49479147,0.49215538,0.87050737,0,0)"
         inkscape:transform-center-x="-1.0096154"
         inkscape:transform-center-y="2.7403846" />
      <rect
         style="fill:#ffffff;fill-opacity:1;stroke-width:27.3862"
         id="rect2931-5"
         width="346.83041"
         height="46.491798"
         x="740.35315"
         y="-240.10933"
         transform="matrix(0.46407978,0.88579341,-0.86623638,0.4996344,0,0)" />
    </g>
  </g>
</svg>
